<?xml version="1.0" encoding="UTF-8" standalone="no"?>
<svg
   version="1.1"
   width="512"
   height="512"
   id="svg162"
   sodipodi:docname="FICYCISTS.svg"
   inkscape:version="1.3 (0e150ed6c4, 2023-07-21)"
   inkscape:export-filename="FICYCISTS_lowpx_white.png"
   inkscape:export-xdpi="12"
   inkscape:export-ydpi="12"
   xmlns:inkscape="http://www.inkscape.org/namespaces/inkscape"
   xmlns:sodipodi="http://sodipodi.sourceforge.net/DTD/sodipodi-0.dtd"
   xmlns="http://www.w3.org/2000/svg"
   xmlns:svg="http://www.w3.org/2000/svg">
  <defs
     id="defs162" />
  <sodipodi:namedview
     id="namedview162"
     pagecolor="#ffffff"
     bordercolor="#111111"
     borderopacity="1"
     inkscape:showpageshadow="0"
     inkscape:pageopacity="0"
     inkscape:pagecheckerboard="1"
     inkscape:deskcolor="#d1d1d1"
     inkscape:zoom="1.7402344"
     inkscape:cx="217.21212"
     inkscape:cy="223.82043"
     inkscape:window-width="1920"
     inkscape:window-height="1129"
     inkscape:window-x="-8"
     inkscape:window-y="-8"
     inkscape:window-maximized="1"
     inkscape:current-layer="strokes" />
  <g
     inkscape:groupmode="layer"
     id="strokes"
     inkscape:label="strokes">
    <path
       id="path178"
       style="display:inline;fill:#ffffff;fill-opacity:1;stroke:none;stroke-width:7.0615;stroke-linecap:round;stroke-linejoin:round;stroke-dasharray:none;stroke-opacity:1"
       d="m 256,99.659215 -3.72914,0.02387 -3.75036,0.06631 -3.79279,0.111395 -3.85645,0.15648 -3.93869,0.19893 -4.04475,0.24667 -13.52941,1.17496 -13.52941,1.17763 -10.94075,0.94953 -13.42862,2.01574 -13.42863,2.01841 -5.66532,0.85138 -13.17135,3.31008 -13.17134,3.30743 -1.23863,0.31297 -12.57723,5.1216 -10.5827,4.31 -11.42082,7.34688 -7.845523,5.04733 -9.625213,9.58013 -6.272701,6.23822 -7.49806,11.32004 -5.553935,8.38128 -5.538005,12.39953 -5.198525,11.64628 -4.020884,12.96977 -4.020897,12.97241 -0.901785,2.90694 -2.983843,13.24826 -2.978538,13.24826 -1.716042,7.61477 -2.328724,13.37822 -2.331376,13.38089 -2.275677,13.0785 -1.962705,13.43659 -1.962706,13.43657 -1.962705,13.43658 -0.835477,5.70775 -1.392459,13.51084 -0.220143,2.13511 -0.201574,12.61701 1.031746,9.91167 2.084712,7.52193 2.962624,5.44784 3.660182,3.692 4.180032,2.25447 4.519528,1.13253 4.683969,0.33153 4.668054,-0.15912 4.471788,-0.32624 4.100461,-0.18036 3.710572,-0.0981 3.471867,-0.36866 3.307428,-0.73735 3.222555,-1.2121 3.211935,-1.78765 3.275598,-2.46665 3.416175,-3.25172 3.633656,-4.13494 3.925404,-5.1269 4.296745,-6.21701 4.739663,-7.41319 5.259523,-8.71018 6.58301,-11.87702 0.60739,-1.0954 5.61492,-11.61443 4.33918,-10.35726 3.36843,-9.19289 2.68944,-8.12666 2.31811,-7.15858 2.24385,-6.2833 2.46664,-5.50619 2.99445,-4.8272 3.82198,-4.24369 4.94389,-3.75565 6.37349,-3.36312 8.27519,-2.21468 13.32784,-1.80622 13.5347,-1.09805 3.83524,-0.31032 13.56123,-0.66839 6.83765,-0.33685 13.57449,-0.36601 8.84544,-0.23871 13.5798,-0.11669 9.85331,-0.0822 13.5798,0.11671 9.85331,0.0822 13.5745,0.36602 8.84543,0.2387 13.5639,0.66839 6.83499,0.33685 13.53736,1.0954 3.83257,0.31297 13.32784,1.80622 8.2752,2.21468 6.37348,3.36312 4.94389,3.75565 3.82198,4.24369 2.99445,4.8272 2.46664,5.50619 2.24385,6.2833 2.31811,7.15858 2.68944,8.12666 3.36843,9.19289 4.33918,10.35726 5.61492,11.61443 6.58303,11.87702 0.60737,1.0954 5.25952,8.71018 4.73967,7.41319 4.29674,6.21701 3.92541,5.1269 3.63365,4.13494 3.41618,3.25172 3.27559,2.46665 3.21194,1.78765 3.22255,1.2121 3.30743,0.73735 3.47187,0.36866 3.71057,0.0981 4.10046,0.18036 4.47179,0.32624 4.66806,0.15912 4.68397,-0.33153 4.51952,-1.13253 4.18004,-2.25447 3.66018,-3.692 2.96262,-5.44784 2.08472,-7.52193 1.03174,-9.91167 -0.20158,-12.61701 -1.39246,-13.51084 -0.22014,-2.13511 -1.96535,-13.43657 -1.96006,-13.43658 -1.9627,-13.43657 -0.83548,-5.70777 -2.32872,-13.38087 -2.32874,-13.37558 -2.27832,-13.08116 -2.98119,-13.24826 -2.98385,-13.24827 -1.71339,-7.61476 -4.02088,-12.96977 -4.0209,-12.97243 -0.90178,-2.90692 -5.53537,-12.39953 -5.20116,-11.64628 -7.50072,-11.32003 -5.55127,-8.38129 -9.62788,-9.57747 -6.27004,-6.24088 -11.42083,-7.34687 -7.84551,-5.04734 -12.57458,-5.1216 -10.58535,-4.31 -13.17135,-3.31007 -13.1687,-3.30743 -1.24127,-0.31298 -13.42862,-2.0184 -13.42862,-2.01575 -5.66533,-0.85138 -13.53205,-1.17498 -13.52676,-1.17762 -10.94076,-0.94952 -4.04475,-0.24667 -3.93869,-0.19893 -3.85645,-0.15648 -3.79279,-0.111395 -3.75036,-0.06631 z M 144.59259,145.34251 a 2.0371739,2.0371739 0 0 1 1.77704,0.32889 l 10.86649,8.14788 8.17706,6.13213 5.45844,4.09251 5.4054,4.05271 a 2.0371739,2.0371739 0 0 0 0.003,0 l 3.79811,2.84858 0.20952,-0.2891 a 2.0369702,2.0369702 0 0 1 0.005,-0.003 2.0369702,2.0369702 0 0 0 0,-0.003 l 0.26789,-0.36601 0.26522,-0.36337 a 2.0369702,2.0369702 0 0 1 0.005,-0.003 2.0369702,2.0369702 0 0 1 0.003,-0.008 l 0.26788,-0.36337 0.26524,-0.3607 a 2.0369702,2.0369702 0 0 1 0.008,-0.005 2.0369702,2.0369702 0 0 1 0.003,-0.008 l 0.52516,-0.70286 a 2.0369702,2.0369702 0 0 1 0.005,-0.003 2.0369702,2.0369702 0 0 1 0.003,-0.008 l 0.25196,-0.33418 0.25197,-0.33154 a 2.0369702,2.0369702 0 0 1 0.0106,-0.005 2.0369702,2.0369702 0 0 1 0.003,-0.0133 l 0.244,-0.31828 0.24667,-0.32093 a 2.0369702,2.0369702 0 0 1 0.008,-0.005 2.0369702,2.0369702 0 0 1 0.003,-0.008 l 0.23604,-0.30237 0.23606,-0.30237 a 2.0369702,2.0369702 0 0 1 0.0133,-0.008 2.0369702,2.0369702 0 0 1 0.003,-0.008 l 0.23075,-0.28912 0.2281,-0.2891 a 2.0369702,2.0369702 0 0 1 0.0159,-0.008 2.0369702,2.0369702 0 0 1 0.003,-0.0133 l 0.22546,-0.27584 0.22279,-0.27584 a 2.0369702,2.0369702 0 0 1 0.0159,-0.008 2.0369702,2.0369702 0 0 1 0.003,-0.0106 l 0.22014,-0.26523 a 2.0369702,2.0369702 0 0 1 0.0159,-0.008 2.0369702,2.0369702 0 0 1 0.005,-0.0186 l 1.09009,-1.26249 a 2.0371739,2.0371739 0 0 1 0.0345,-0.0371 l 0.42703,-0.4721 a 2.0371739,2.0371739 0 0 1 0.0212,-0.0239 l 0.42702,-0.45355 a 2.0371739,2.0371739 0 0 1 0.0212,-0.0239 l 0.42702,-0.44028 a 2.0371739,2.0371739 0 0 1 0.0265,-0.0265 l 0.42968,-0.42968 a 2.0371739,2.0371739 0 0 1 0.0239,-0.0212 l 0.42702,-0.41375 a 2.0371739,2.0371739 0 0 1 0.0292,-0.0292 l 0.43233,-0.39785 a 2.0371739,2.0371739 0 0 1 0.0318,-0.0318 l 0.43497,-0.3846 a 2.0371739,2.0371739 0 0 1 0.0345,-0.0292 l 0.43498,-0.36867 a 2.0371739,2.0371739 0 0 1 0.0371,-0.0318 l 0.43764,-0.35276 a 2.0371739,2.0371739 0 0 1 0.0345,-0.0292 l 0.44028,-0.3395 a 2.0371739,2.0371739 0 0 1 0.0531,-0.0371 l 0.44558,-0.32093 a 2.0371739,2.0371739 0 0 1 0.0398,-0.0318 l 0.44824,-0.30501 a 2.0371739,2.0371739 0 0 1 0.0557,-0.0371 l 0.45355,-0.2891 a 2.0371739,2.0371739 0 0 1 0.0557,-0.0345 l 0.45886,-0.27319 a 2.0371739,2.0371739 0 0 1 0.061,-0.0345 l 0.46681,-0.25727 a 2.0371739,2.0371739 0 0 1 0.069,-0.0345 l 0.47741,-0.24136 a 2.0371739,2.0371739 0 0 1 0.069,-0.0318 l 0.48537,-0.22014 a 2.0371739,2.0371739 0 0 1 0.0743,-0.0318 l 0.49599,-0.20422 a 2.0371739,2.0371739 0 0 1 0.0796,-0.0318 l 0.51189,-0.18302 a 2.0371739,2.0371739 0 0 1 0.0822,-0.0292 l 0.52781,-0.16444 a 2.0371739,2.0371739 0 0 1 0.0875,-0.0265 l 0.54373,-0.14321 a 2.0371739,2.0371739 0 0 1 0.0955,-0.0239 l 0.56493,-0.12201 a 2.0371739,2.0371739 0 0 1 0.0955,-0.0186 l 0.5835,-0.0981 a 2.0371739,2.0371739 0 0 1 0.0981,-0.0133 l 0.60207,-0.0716 a 2.0371739,2.0371739 0 0 1 0.0981,-0.008 l 0.6127,-0.0424 a 2.0371739,2.0371739 0 0 1 0.10343,-0.005 l 0.61799,-0.0106 a 2.0371739,2.0371739 0 0 1 0.10078,0.003 l 0.61534,0.0186 a 2.0371739,2.0371739 0 0 1 0.1061,0.005 l 0.60737,0.0504 a 2.0371739,2.0371739 0 0 1 0.0955,0.0106 l 0.59412,0.0769 a 2.0371739,2.0371739 0 0 1 0.0955,0.0159 l 0.5782,0.10079 a 2.0371739,2.0371739 0 0 1 0.0955,0.0212 l 0.55964,0.12732 a 2.0371739,2.0371739 0 0 1 0.0902,0.0212 l 0.54106,0.15119 a 2.0371739,2.0371739 0 0 1 0.0902,0.0265 l 0.52516,0.16975 a 2.0371739,2.0371739 0 0 1 0.0822,0.0292 l 0.50925,0.19097 a 2.0371739,2.0371739 0 0 1 0.0769,0.0318 l 0.49599,0.20688 a 2.0371739,2.0371739 0 0 1 0.0743,0.0345 l 0.48272,0.22546 a 2.0371739,2.0371739 0 0 1 0.0663,0.0318 l 0.47211,0.24402 a 2.0371739,2.0371739 0 0 1 0.069,0.0345 l 0.46416,0.26258 a 2.0371739,2.0371739 0 0 1 0.0557,0.0318 l 0.45885,0.27583 a 2.0371739,2.0371739 0 0 1 0.0584,0.0371 l 0.45355,0.29706 a 2.0371739,2.0371739 0 0 1 0.0477,0.0318 l 0.4456,0.30768 a 2.0371739,2.0371739 0 0 1 0.0451,0.0345 l 0.4456,0.32358 a 2.0371739,2.0371739 0 0 1 0.0451,0.0345 l 0.44029,0.34215 a 2.0371739,2.0371739 0 0 1 0.0398,0.0345 l 0.43763,0.35807 a 2.0371739,2.0371739 0 0 1 0.0371,0.0292 l 0.43231,0.37397 a 2.0371739,2.0371739 0 0 1 0.0345,0.0318 l 0.43233,0.38723 a 2.0371739,2.0371739 0 0 1 0.0292,0.0265 l 0.43233,0.40315 a 2.0371739,2.0371739 0 0 1 0.0292,0.0265 l 0.42704,0.41641 a 2.0371739,2.0371739 0 0 1 0.0265,0.0265 l 0.42701,0.42968 a 2.0371739,2.0371739 0 0 1 0.0265,0.0265 l 0.42702,0.4456 a 2.0371739,2.0371739 0 0 1 0.0212,0.0239 l 0.42437,0.4562 a 2.0371739,2.0371739 0 0 1 0.12466,0.14587 l 8.26723,10.77367 8.37067,10.90362 0.32623,0.3448 0.38459,0.39254 0.38194,0.37928 0.37662,0.36071 0.37132,0.33949 0.36867,0.3236 0.36337,0.30501 0.35541,0.28379 0.35275,0.26789 0.33949,0.24136 0.33685,0.22545 0.32624,0.20423 0.31562,0.18565 0.29971,0.1618 0.29176,0.14321 0.27052,0.12202 0.25462,0.0981 0.23341,0.0822 0.21484,0.0637 0.19626,0.0504 0.16975,0.0345 0.15383,0.0239 0.13262,0.0133 0.12201,0.008 h 0.12466 l 0.11405,-0.003 0.12201,-0.0133 0.14852,-0.0212 0.15914,-0.0292 0.19097,-0.0478 0.21219,-0.061 0.23074,-0.0769 0.25198,-0.0981 0.26787,-0.11671 0.28646,-0.13526 0.2997,-0.15915 0.31033,-0.1777 0.32358,-0.19892 0.33418,-0.21749 0.3395,-0.23871 0.3448,-0.25993 0.35806,-0.28114 0.36072,-0.30236 0.36867,-0.31828 0.37132,-0.33685 0.37662,-0.35539 0.37929,-0.37398 0.38458,-0.38989 0.38458,-0.40315 0.3342,-0.36071 8.19031,-10.71532 8.04179,-10.5217 a 2.0371739,2.0371739 0 0 1 0.12201,-0.14587 l 0.42702,-0.4615 a 2.0371739,2.0371739 0 0 1 0.0186,-0.0186 l 0.42702,-0.44824 a 2.0371739,2.0371739 0 0 1 0.0239,-0.0265 l 0.42703,-0.43498 a 2.0371739,2.0371739 0 0 1 0.0265,-0.0239 l 0.42702,-0.42172 a 2.0371739,2.0371739 0 0 1 0.0265,-0.0239 l 0.42968,-0.4058 a 2.0371739,2.0371739 0 0 1 0.0345,-0.0345 l 0.43497,-0.38989 a 2.0371739,2.0371739 0 0 1 0.0265,-0.0239 l 0.43233,-0.37664 a 2.0371739,2.0371739 0 0 1 0.0398,-0.0345 l 0.43497,-0.3607 a 2.0371739,2.0371739 0 0 1 0.0398,-0.0318 l 0.44029,-0.34746 a 2.0371739,2.0371739 0 0 1 0.0398,-0.0292 l 0.44295,-0.33154 a 2.0371739,2.0371739 0 0 1 0.0424,-0.0318 l 0.44558,-0.31564 a 2.0371739,2.0371739 0 0 1 0.0583,-0.0398 l 0.45089,-0.29706 a 2.0371739,2.0371739 0 0 1 0.0477,-0.0292 l 0.45619,-0.28115 a 2.0371739,2.0371739 0 0 1 0.0637,-0.0398 l 0.46416,-0.26258 a 2.0371739,2.0371739 0 0 1 0.0636,-0.0345 l 0.46945,-0.24933 a 2.0371739,2.0371739 0 0 1 0.0663,-0.0318 l 0.48008,-0.23075 a 2.0371739,2.0371739 0 0 1 0.0743,-0.0345 l 0.49333,-0.21219 a 2.0371739,2.0371739 0 0 1 0.069,-0.0292 l 0.50658,-0.19362 a 2.0371739,2.0371739 0 0 1 0.0849,-0.0318 l 0.51987,-0.17504 a 2.0371739,2.0371739 0 0 1 0.0822,-0.0265 l 0.53578,-0.15383 a 2.0371739,2.0371739 0 0 1 0.0955,-0.0265 l 0.55697,-0.13261 a 2.0371739,2.0371739 0 0 1 0.0902,-0.0212 l 0.57556,-0.10875 a 2.0371739,2.0371739 0 0 1 0.0902,-0.0159 l 0.59411,-0.0849 a 2.0371739,2.0371739 0 0 1 0.1061,-0.0132 l 0.60739,-0.0557 a 2.0371739,2.0371739 0 0 1 0.0955,-0.005 l 0.61799,-0.0265 a 2.0371739,2.0371739 0 0 1 0.10608,-0.003 l 0.61799,0.005 a 2.0371739,2.0371739 0 0 1 0.0955,0.003 l 0.61268,0.0345 a 2.0371739,2.0371739 0 0 1 0.10079,0.008 l 0.60472,0.0637 a 2.0371739,2.0371739 0 0 1 0.0928,0.0132 l 0.58616,0.0875 a 2.0371739,2.0371739 0 0 1 0.10079,0.0186 l 0.57026,0.11669 a 2.0371739,2.0371739 0 0 1 0.0875,0.0212 l 0.55168,0.13792 a 2.0371739,2.0371739 0 0 1 0.0902,0.0239 l 0.5331,0.16179 a 2.0371739,2.0371739 0 0 1 0.0849,0.0265 l 0.5172,0.18035 a 2.0371739,2.0371739 0 0 1 0.0822,0.0318 l 0.50129,0.19893 a 2.0371739,2.0371739 0 0 1 0.0769,0.0318 l 0.48804,0.2175 a 2.0371739,2.0371739 0 0 1 0.0743,0.0345 l 0.47742,0.23606 a 2.0371739,2.0371739 0 0 1 0.0583,0.0292 l 0.46947,0.25198 a 2.0371739,2.0371739 0 0 1 0.069,0.0371 l 0.4615,0.27054 a 2.0371739,2.0371739 0 0 1 0.053,0.0318 l 0.4562,0.28645 a 2.0371739,2.0371739 0 0 1 0.053,0.0345 l 0.44824,0.29971 a 2.0371739,2.0371739 0 0 1 0.0531,0.0371 l 0.44558,0.31828 a 2.0371739,2.0371739 0 0 1 0.0424,0.0318 l 0.44028,0.33418 a 2.0371739,2.0371739 0 0 1 0.0398,0.0318 l 0.43762,0.34745 a 2.0371739,2.0371739 0 0 1 0.0424,0.0345 l 0.43763,0.36866 a 2.0371739,2.0371739 0 0 1 0.0318,0.0265 l 0.43231,0.38194 a 2.0371739,2.0371739 0 0 1 0.0345,0.0292 l 0.43232,0.39785 a 2.0371739,2.0371739 0 0 1 0.0265,0.0239 l 0.43233,0.4111 a 2.0371739,2.0371739 0 0 1 0.0265,0.0265 l 0.42966,0.42437 a 2.0371739,2.0371739 0 0 1 0.0239,0.0239 l 0.42701,0.44029 a 2.0371739,2.0371739 0 0 1 0.0239,0.0239 l 0.42703,0.45089 a 2.0371739,2.0371739 0 0 1 0.1326,0.15648 l 8.2699,10.77101 a 2.0371739,2.0371739 0 0 0 0,0.003 l 8.26723,10.77101 0.11404,0.14588 0.33419,0.35805 0.38459,0.40315 0.38194,0.38459 0.38193,0.37133 0.37397,0.3501 0.36867,0.33154 0.36601,0.31297 0.36072,0.29706 0.35275,0.27318 0.34745,0.25462 0.33685,0.23606 0.33419,0.21483 0.31828,0.19363 0.30766,0.17239 0.29971,0.15383 0.27849,0.12998 0.26525,0.11139 0.24666,0.0928 0.21748,0.0716 0.20954,0.0584 0.183,0.0398 0.15649,0.0292 0.15118,0.0186 0.12465,0.0106 0.11671,0.005 0.1167,-0.003 0.12467,-0.008 0.1326,-0.0159 0.15119,-0.0265 0.17505,-0.0371 0.20157,-0.0557 0.22545,-0.069 0.23871,-0.0849 0.26258,-0.10875 0.27849,-0.12731 0.2891,-0.14322 0.30766,-0.16975 0.31829,-0.18831 0.32358,-0.20688 0.33683,-0.23076 0.34481,-0.25196 0.35276,-0.27053 0.3607,-0.29175 0.36337,-0.30768 0.36867,-0.32889 0.37397,-0.34479 0.37929,-0.36602 0.38193,-0.37928 0.38193,-0.39785 0.38724,-0.41376 0.34479,-0.37927 7.54581,-9.88515 a 2.0371739,2.0371739 0 0 1 0.26258,-0.5278 l 10.8665,-8.14523 10.86384,-8.14788 10.86384,-8.14522 5.49292,-4.11904 a 2.0371739,2.0371739 0 0 1 1.77704,-0.32889 l 3.19337,0.90444 a 2.0371739,2.0371739 0 0 1 1.47735,2.03697 2.0371739,2.0371739 0 0 1 -0.23076,0.8673 2.0371739,2.0371739 0 0 1 -0.58085,0.6843 l -10.86384,8.14788 -10.86649,8.14522 -10.86384,8.14788 -2.11124,1.58343 8.6916,6.51672 10.86384,8.14523 10.86649,8.14788 4.28348,3.21194 a 2.0371739,2.0371739 0 0 1 0.81161,1.5516 2.0371739,2.0371739 0 0 1 -0.16179,0.88057 2.0371739,2.0371739 0 0 1 -0.52782,0.72672 2.0371739,2.0371739 0 0 1 -0.78774,0.42968 l -3.19337,0.90709 a 2.0371739,2.0371739 0 0 1 -1.77704,-0.33154 l -10.86649,-8.14523 -10.86384,-8.14523 -10.86384,-8.14788 -1.16702,-0.87262 -5.49027,7.11879 a 2.0371739,2.0371739 0 0 1 -0.10609,0.12732 l -0.42968,0.46945 a 2.0371739,2.0371739 0 0 1 -0.0186,0.0186 l -0.42437,0.45618 a 2.0371739,2.0371739 0 0 1 -0.0239,0.0239 l -0.42702,0.44293 a 2.0371739,2.0371739 0 0 1 -0.0292,0.0292 l -0.42967,0.42702 a 2.0371739,2.0371739 0 0 1 -0.0212,0.0212 l -0.42702,0.41375 a 2.0371739,2.0371739 0 0 1 -0.0318,0.0292 l -0.43233,0.40049 a 2.0371739,2.0371739 0 0 1 -0.0292,0.0239 l -0.43232,0.38458 a 2.0371739,2.0371739 0 0 1 -0.0371,0.0345 l -0.43498,0.36868 a 2.0371739,2.0371739 0 0 1 -0.0345,0.0265 l -0.43762,0.35541 a 2.0371739,2.0371739 0 0 1 -0.0424,0.0318 l -0.43763,0.3395 a 2.0371739,2.0371739 0 0 1 -0.0451,0.0345 l -0.44559,0.32092 a 2.0371739,2.0371739 0 0 1 -0.0504,0.0345 l -0.44824,0.30767 a 2.0371739,2.0371739 0 0 1 -0.0504,0.0318 l -0.45355,0.29176 a 2.0371739,2.0371739 0 0 1 -0.0557,0.0345 l -0.45886,0.27319 a 2.0371739,2.0371739 0 0 1 -0.0636,0.0345 l -0.46946,0.25726 a 2.0371739,2.0371739 0 0 1 -0.0637,0.0318 l -0.47476,0.24136 a 2.0371739,2.0371739 0 0 1 -0.0716,0.0318 l -0.48537,0.2228 a 2.0371739,2.0371739 0 0 1 -0.0743,0.0318 l -0.49599,0.20423 a 2.0371739,2.0371739 0 0 1 -0.0796,0.0292 l -0.51189,0.18566 a 2.0371739,2.0371739 0 0 1 -0.0822,0.0265 l -0.52781,0.16708 a 2.0371739,2.0371739 0 0 1 -0.0875,0.0239 l -0.54373,0.14587 a 2.0371739,2.0371739 0 0 1 -0.0955,0.0212 l -0.56493,0.12201 a 2.0371739,2.0371739 0 0 1 -0.0955,0.0186 l -0.5835,0.0981 a 2.0371739,2.0371739 0 0 1 -0.0981,0.0133 l -0.60207,0.0716 a 2.0371739,2.0371739 0 0 1 -0.0981,0.008 l -0.6127,0.0424 a 2.0371739,2.0371739 0 0 1 -0.10343,0.005 l -0.61799,0.0106 a 2.0371739,2.0371739 0 0 1 -0.10078,0 l -0.61534,-0.0186 a 2.0371739,2.0371739 0 0 1 -0.10079,-0.008 l -0.60737,-0.0477 a 2.0371739,2.0371739 0 0 1 -0.10079,-0.0106 l -0.59411,-0.0769 a 2.0371739,2.0371739 0 0 1 -0.10079,-0.0159 l -0.5782,-0.10344 a 2.0371739,2.0371739 0 0 1 -0.0902,-0.0186 l -0.55964,-0.12731 a 2.0371739,2.0371739 0 0 1 -0.0902,-0.0239 l -0.54106,-0.14853 a 2.0371739,2.0371739 0 0 1 -0.0902,-0.0265 l -0.52516,-0.1724 a 2.0371739,2.0371739 0 0 1 -0.0822,-0.0292 l -0.50925,-0.18831 a 2.0371739,2.0371739 0 0 1 -0.0743,-0.0292 l -0.49599,-0.20954 a 2.0371739,2.0371739 0 0 1 -0.0743,-0.0318 l -0.48538,-0.2281 a 2.0371739,2.0371739 0 0 1 -0.0716,-0.0345 l -0.47476,-0.24666 a 2.0371739,2.0371739 0 0 1 -0.0584,-0.0318 l -0.46681,-0.25993 a 2.0371739,2.0371739 0 0 1 -0.0584,-0.0345 l -0.45885,-0.27849 a 2.0371739,2.0371739 0 0 1 -0.053,-0.0318 l -0.45089,-0.29439 a 2.0371739,2.0371739 0 0 1 -0.0557,-0.0371 l -0.44823,-0.31031 a 2.0371739,2.0371739 0 0 1 -0.0398,-0.0292 l -0.4456,-0.32623 a 2.0371739,2.0371739 0 0 1 -0.0451,-0.0345 l -0.44028,-0.34216 a 2.0371739,2.0371739 0 0 1 -0.0371,-0.0292 l -0.43764,-0.35806 a 2.0371739,2.0371739 0 0 1 -0.0398,-0.0318 l -0.43231,-0.37397 a 2.0371739,2.0371739 0 0 1 -0.0371,-0.0345 l -0.43233,-0.38989 a 2.0371739,2.0371739 0 0 1 -0.0239,-0.0212 l -0.43233,-0.40051 a 2.0371739,2.0371739 0 0 1 -0.0345,-0.0318 l -0.42701,-0.41907 a 2.0371739,2.0371739 0 0 1 -0.0239,-0.0239 l -0.42701,-0.42966 a 2.0371739,2.0371739 0 0 1 -0.0265,-0.0239 l -0.42437,-0.44558 a 2.0371739,2.0371739 0 0 1 -0.0239,-0.0239 l -0.42437,-0.45885 a 2.0371739,2.0371739 0 0 1 -0.12466,-0.14588 l -8.26723,-10.77101 -8.37067,-10.90362 -0.32623,-0.3448 -0.38459,-0.3952 -0.38194,-0.37927 -0.37397,-0.35806 -0.37397,-0.3395 -0.36867,-0.32624 -0.36337,-0.30502 -0.35541,-0.28114 -0.35275,-0.26787 -0.34215,-0.24402 -0.33419,-0.22545 -0.32624,-0.20423 -0.31562,-0.18566 -0.29971,-0.16179 -0.28645,-0.14056 -0.27849,-0.12202 -0.25196,-0.10079 -0.23341,-0.0822 -0.22015,-0.0637 -0.19095,-0.0504 -0.16975,-0.0345 -0.15383,-0.0239 -0.13262,-0.0132 -0.12201,-0.008 h -0.1167 l -0.12201,0.005 -0.12465,0.0106 -0.14323,0.0212 -0.1671,0.0318 -0.18566,0.0451 -0.21219,0.061 -0.2281,0.0769 -0.25462,0.10078 -0.27052,0.1167 -0.28381,0.13527 -0.2997,0.15649 -0.31298,0.17771 -0.31828,0.19892 -0.33154,0.21749 -0.34479,0.24135 -0.34745,0.26258 -0.35541,0.2785 -0.36072,0.2997 -0.36866,0.31829 -0.37133,0.33949 -0.37662,0.35275 -0.37929,0.37398 -0.38458,0.38989 -0.38458,0.4058 -0.3342,0.36072 -8.19031,10.71531 -8.04179,10.51903 a 2.0371739,2.0371739 0 0 1 -0.11935,0.14323 l -0.42437,0.46151 a 2.0371739,2.0371739 0 0 1 -0.0265,0.0265 l -0.42703,0.44824 a 2.0371739,2.0371739 0 0 1 -0.0212,0.0212 l -0.42703,0.43498 a 2.0371739,2.0371739 0 0 1 -0.0265,0.0239 l -0.42702,0.42172 a 2.0371739,2.0371739 0 0 1 -0.0265,0.0265 l -0.42968,0.40581 a 2.0371739,2.0371739 0 0 1 -0.0318,0.0292 l -0.43497,0.39254 a 2.0371739,2.0371739 0 0 1 -0.0318,0.0292 l -0.43231,0.37662 a 2.0371739,2.0371739 0 0 1 -0.0345,0.0265 l -0.43498,0.36337 a 2.0371739,2.0371739 0 0 1 -0.0424,0.0345 l -0.44029,0.34745 a 2.0371739,2.0371739 0 0 1 -0.0424,0.0318 l -0.44294,0.32889 a 2.0371739,2.0371739 0 0 1 -0.0398,0.0292 l -0.44559,0.31562 a 2.0371739,2.0371739 0 0 1 -0.053,0.0371 l -0.45355,0.29971 a 2.0371739,2.0371739 0 0 1 -0.053,0.0345 l -0.45885,0.28114 a 2.0371739,2.0371739 0 0 1 -0.0583,0.0345 l -0.46416,0.26524 a 2.0371739,2.0371739 0 0 1 -0.0637,0.0345 l -0.46945,0.24666 a 2.0371739,2.0371739 0 0 1 -0.0663,0.0318 l -0.48008,0.23076 a 2.0371739,2.0371739 0 0 1 -0.0716,0.0318 l -0.49068,0.21485 a 2.0371739,2.0371739 0 0 1 -0.0796,0.0318 l -0.50659,0.19363 a 2.0371739,2.0371739 0 0 1 -0.0796,0.0292 l -0.51987,0.17504 a 2.0371739,2.0371739 0 0 1 -0.0822,0.0265 l -0.53578,0.1565 a 2.0371739,2.0371739 0 0 1 -0.0955,0.0239 l -0.55698,0.13527 a 2.0371739,2.0371739 0 0 1 -0.0849,0.0186 l -0.57556,0.1114 a 2.0371739,2.0371739 0 0 1 -0.10079,0.0159 l -0.59411,0.0849 a 2.0371739,2.0371739 0 0 1 -0.10079,0.0106 l -0.60739,0.0557 a 2.0371739,2.0371739 0 0 1 -0.0955,0.008 l -0.61798,0.0265 a 2.0371739,2.0371739 0 0 1 -0.10344,0.003 l -0.61799,-0.005 a 2.0371739,2.0371739 0 0 1 -0.10344,-0.003 l -0.61268,-0.0371 a 2.0371739,2.0371739 0 0 1 -0.0928,-0.005 l -0.60207,-0.0637 a 2.0371739,2.0371739 0 0 1 -0.10079,-0.0133 l -0.58881,-0.0902 a 2.0371739,2.0371739 0 0 1 -0.0902,-0.0159 l -0.57025,-0.11669 a 2.0371739,2.0371739 0 0 1 -0.0981,-0.0212 l -0.5517,-0.14057 a 2.0371739,2.0371739 0 0 1 -0.0849,-0.0239 l -0.5331,-0.15914 a 2.0371739,2.0371739 0 0 1 -0.0849,-0.0292 l -0.5172,-0.18037 a 2.0371739,2.0371739 0 0 1 -0.0822,-0.0292 l -0.50129,-0.19891 a 2.0371739,2.0371739 0 0 1 -0.0769,-0.0318 l -0.48803,-0.21749 a 2.0371739,2.0371739 0 0 1 -0.069,-0.0318 l -0.48006,-0.23604 a 2.0371739,2.0371739 0 0 1 -0.069,-0.0371 l -0.46947,-0.25197 a 2.0371739,2.0371739 0 0 1 -0.0584,-0.0318 l -0.4615,-0.27053 a 2.0371739,2.0371739 0 0 1 -0.061,-0.0345 l -0.45355,-0.28645 a 2.0371739,2.0371739 0 0 1 -0.0504,-0.0318 l -0.44824,-0.30235 a 2.0371739,2.0371739 0 0 1 -0.0477,-0.0345 l -0.44558,-0.31828 a 2.0371739,2.0371739 0 0 1 -0.0478,-0.0318 l -0.44028,-0.33419 a 2.0371739,2.0371739 0 0 1 -0.0424,-0.0345 l -0.43763,-0.3501 a 2.0371739,2.0371739 0 0 1 -0.0398,-0.0318 l -0.43763,-0.36602 a 2.0371739,2.0371739 0 0 1 -0.0318,-0.0292 l -0.43231,-0.37927 a 2.0371739,2.0371739 0 0 1 -0.0345,-0.0318 l -0.43232,-0.3952 a 2.0371739,2.0371739 0 0 1 -0.0265,-0.0265 l -0.43233,-0.4111 a 2.0371739,2.0371739 0 0 1 -0.0265,-0.0265 l -0.42966,-0.42437 a 2.0371739,2.0371739 0 0 1 -0.0239,-0.0239 l -0.42701,-0.43763 a 2.0371739,2.0371739 0 0 1 -0.0239,-0.0265 l -0.42703,-0.45089 a 2.0371739,2.0371739 0 0 1 -0.1326,-0.15648 l -8.2699,-10.77101 -8.26988,-10.77103 a 2.0371739,2.0371739 0 0 1 -0.003,-0.005 l -0.10874,-0.14323 -0.33154,-0.35541 -0.38724,-0.40314 -0.38458,-0.38724 -0.37663,-0.36867 -0.37663,-0.35011 -0.37133,-0.33419 -0.36335,-0.31297 -0.35806,-0.29441 -0.35541,-0.27319 -0.34745,-0.25727 -0.33685,-0.23341 -0.33154,-0.21483 -0.32093,-0.19627 -0.30766,-0.17239 -0.29971,-0.15119 -0.28116,-0.13262 -0.25991,-0.11139 -0.24933,-0.0902 -0.22279,-0.0743 -0.19892,-0.0557 -0.18831,-0.0424 -0.1618,-0.0292 -0.14587,-0.0186 -0.12465,-0.0106 -0.11671,-0.003 -0.1167,0.003 -0.11671,0.008 -0.14056,0.0159 -0.1565,0.0265 -0.16974,0.0345 -0.19892,0.0557 -0.22545,0.069 -0.244,0.0902 -0.25994,0.10343 -0.27584,0.12731 -0.2944,0.14588 -0.30501,0.16975 -0.31829,0.18831 -0.32358,0.20689 -0.33683,0.23074 -0.34481,0.24932 -0.35276,0.27053 -0.3607,0.29175 -0.36337,0.30768 -0.36867,0.32887 -0.37397,0.34746 -0.37664,0.36072 -0.38458,0.38458 -0.38458,0.3952 -0.38459,0.41375 -0.36866,0.4058 -2.84594,3.46922 -0.183,0.23606 a 2.0369702,2.0369702 0 0 1 -0.008,0.0132 l -0.25197,0.33154 a 2.0371739,2.0371739 0 0 0 -0.003,0.003 l -0.2387,0.31562 a 2.0369702,2.0369702 0 0 1 -0.005,0.008 l -0.008,0.008 -0.24931,0.33683 -0.25198,0.3395 a 2.0369702,2.0369702 0 0 0 -0.003,0.003 l -0.003,0.003 -0.26524,0.35542 -0.25727,0.3501 -0.008,0.0106 -0.25992,0.35541 a 2.0371739,2.0371739 0 0 0 0,0.003 l -0.26258,0.36071 a 2.0369702,2.0369702 0 0 0 -0.003,0.003 l -0.003,0.003 -0.25727,0.3501 -0.25462,0.35276 v 0.003 l -0.24401,0.3395 a 2.0371739,2.0371739 0 0 1 -0.005,0.003 l -0.23871,0.32888 a 2.0369702,2.0369702 0 0 1 -0.003,0.008 l -0.005,0.005 -0.22015,0.30767 -0.22279,0.31031 a 2.0369702,2.0369702 0 0 1 -0.003,0.005 l -0.19893,0.27583 -0.19891,0.2785 -0.0769,0.10874 a 2.0369702,2.0369702 0 0 1 -0.0345,0.19627 2.0369702,2.0369702 0 0 1 -0.15649,0.32093 2.0369702,2.0369702 0 0 1 -0.11404,0.23075 2.0369702,2.0369702 0 0 1 -0.0186,0.0186 2.0369702,2.0369702 0 0 1 -0.0133,0.0265 2.0369702,2.0369702 0 0 1 -0.0292,0.0159 2.0369702,2.0369702 0 0 1 -0.38193,0.3952 l -10.86384,8.14788 -8.17971,6.13212 -10.86649,8.14524 -8.17706,6.13213 a 2.0369702,2.0369702 0 0 1 -0.14057,0.0345 2.0369702,2.0369702 0 0 1 -0.74796,0.19361 2.0369702,2.0369702 0 0 1 -0.62064,0.15914 2.0369702,2.0369702 0 0 1 -0.122,-0.0716 2.0369702,2.0369702 0 0 1 -0.14587,0.0159 l -1.59669,-0.45355 -1.59668,-0.45354 a 2.0369702,2.0369702 0 0 1 -0.51191,-0.40316 2.0369702,2.0369702 0 0 1 -0.56228,-0.33418 2.0369702,2.0369702 0 0 1 -0.0345,-0.13792 2.0369702,2.0369702 0 0 1 -0.11406,-0.0902 2.0369702,2.0369702 0 0 0 0,-0.003 2.0369702,2.0369702 0 0 1 -0.0743,-0.63922 2.0369702,2.0369702 0 0 1 -0.0902,-0.76651 2.0369702,2.0369702 0 0 1 -0.0159,-0.14056 2.0369702,2.0369702 0 0 1 0.40316,-0.51191 2.0369702,2.0369702 0 0 1 0.33418,-0.56228 l 10.86384,-8.14524 7.57499,-5.68123 10.86384,-8.14523 5.40274,-4.05007 -8.6916,-6.51671 -7.57498,-5.68123 -10.86384,-8.14524 -7.57499,-5.68123 a 2.0371739,2.0371739 0 0 1 -0.50924,-2.70004 2.0371739,2.0371739 0 0 1 1.17498,-0.88853 z m 186.81774,31.07971 -0.0371,0.0292 a 2.0371739,2.0371739 0 0 1 0.0477,-0.008 2.0371739,2.0371739 0 0 1 -0.0106,-0.0212 z" />
    <g
       id="g162"
       style="mix-blend-mode:normal;fill:#000000;fill-opacity:1;stroke:#000000;stroke-linecap:round;stroke-linejoin:round;stroke-opacity:1" />
  </g>
</svg>
